<mxfile host="app.diagrams.net" modified="2023-12-05T11:11:48.770Z" agent="Mozilla/5.0 (Macintosh; Intel Mac OS X 10_15_7) AppleWebKit/537.36 (KHTML, like Gecko) Chrome/119.0.0.0 Safari/537.36" version="22.1.5" etag="47BOlbRcbCn7OVi6jYMt" type="github">
  <diagram name="Page-1" id="XCNP6V-SnRcTAnLtV_UW">
    <mxGraphModel>
      <root>
        <mxCell id="0" />
        <mxCell id="1" parent="0" />
      </root>
    </mxGraphModel>
  </diagram>
</mxfile>
